# xmcd
#
# Track frame offsets: 
#        150
#        15148
#        32841
#        49757
#
# Disc length: 821 seconds
#
# Revision: 0
# Processed by: cddbd v1.4PL0 Copyright (c) Steve Scherf et al.
# Submitted via: ExactAudioCopy v0.95a4
#
DISCID=22033304
DTITLE=WILD EAGLE - Country Christmas in Augustusburg
DYEAR=1993
DGENRE=Country
TTITLE0=Weihnachten bleib ich zuhaus
TTITLE1=Die kleinen Cowboys
TTITLE2=Weihnachten allein
TTITLE3=Country Christmas in Augustusburg
EXTD=
EXTT0=
EXTT1=
EXTT2=
EXTT3=
PLAYORDER=
